<mxfile host="Electron" modified="2024-05-12T08:18:53.767Z" agent="Mozilla/5.0 (X11; Linux x86_64) AppleWebKit/537.36 (KHTML, like Gecko) draw.io/24.2.5 Chrome/120.0.6099.109 Electron/28.1.0 Safari/537.36" etag="VqebH5lHVYbP7S52XDoj" version="24.2.5" type="device">
  <diagram name="Página-1" id="CurySxxXu2C1Rzmgpb91">
    <mxGraphModel dx="880" dy="1064" grid="1" gridSize="10" guides="1" tooltips="1" connect="1" arrows="1" fold="1" page="1" pageScale="1" pageWidth="827" pageHeight="583" math="0" shadow="0">
      <root>
        <mxCell id="0" />
        <mxCell id="1" parent="0" />
        <mxCell id="Q6l-A-WZH55Bo8x8fdeK-23" style="edgeStyle=orthogonalEdgeStyle;rounded=0;orthogonalLoop=1;jettySize=auto;html=1;exitX=0.5;exitY=1;exitDx=0;exitDy=0;" parent="1" source="Q6l-A-WZH55Bo8x8fdeK-2" target="Q6l-A-WZH55Bo8x8fdeK-18" edge="1">
          <mxGeometry relative="1" as="geometry" />
        </mxCell>
        <mxCell id="Q6l-A-WZH55Bo8x8fdeK-2" value="Esperar por señal de disponibilidad del entrelazamiento" style="rounded=0;whiteSpace=wrap;html=1;fillColor=#dae8fc;strokeColor=none;" parent="1" vertex="1">
          <mxGeometry x="460" y="191" width="160" height="58" as="geometry" />
        </mxCell>
        <mxCell id="y3j2_2yqiRQZ7AM6RWgt-2" style="edgeStyle=orthogonalEdgeStyle;rounded=0;orthogonalLoop=1;jettySize=auto;html=1;exitX=1;exitY=0.5;exitDx=0;exitDy=0;entryX=0;entryY=0.5;entryDx=0;entryDy=0;" edge="1" parent="1" source="Q6l-A-WZH55Bo8x8fdeK-4" target="y3j2_2yqiRQZ7AM6RWgt-1">
          <mxGeometry relative="1" as="geometry" />
        </mxCell>
        <mxCell id="Q6l-A-WZH55Bo8x8fdeK-4" value="Inicio de simulación" style="ellipse;whiteSpace=wrap;html=1;fillColor=#f5f5f5;fontColor=#333333;strokeColor=none;" parent="1" vertex="1">
          <mxGeometry x="90" y="-20" width="120" height="60" as="geometry" />
        </mxCell>
        <mxCell id="y3j2_2yqiRQZ7AM6RWgt-4" style="edgeStyle=orthogonalEdgeStyle;rounded=0;orthogonalLoop=1;jettySize=auto;html=1;exitX=1;exitY=0.5;exitDx=0;exitDy=0;entryX=0;entryY=0.5;entryDx=0;entryDy=0;" edge="1" parent="1" source="Q6l-A-WZH55Bo8x8fdeK-13" target="Q6l-A-WZH55Bo8x8fdeK-2">
          <mxGeometry relative="1" as="geometry" />
        </mxCell>
        <mxCell id="Q6l-A-WZH55Bo8x8fdeK-13" value="Solicitar par entrelazado a RoutePrococol del camino" style="rounded=0;whiteSpace=wrap;html=1;fillColor=#dae8fc;strokeColor=none;" parent="1" vertex="1">
          <mxGeometry x="257.5" y="190" width="142.5" height="60" as="geometry" />
        </mxCell>
        <mxCell id="Q6l-A-WZH55Bo8x8fdeK-17" style="edgeStyle=orthogonalEdgeStyle;rounded=0;orthogonalLoop=1;jettySize=auto;html=1;exitX=1;exitY=0.5;exitDx=0;exitDy=0;" parent="1" source="Q6l-A-WZH55Bo8x8fdeK-14" target="Q6l-A-WZH55Bo8x8fdeK-16" edge="1">
          <mxGeometry relative="1" as="geometry" />
        </mxCell>
        <mxCell id="Q6l-A-WZH55Bo8x8fdeK-25" value="NO" style="edgeLabel;html=1;align=center;verticalAlign=middle;resizable=0;points=[];" parent="Q6l-A-WZH55Bo8x8fdeK-17" vertex="1" connectable="0">
          <mxGeometry x="-0.4429" y="-1" relative="1" as="geometry">
            <mxPoint as="offset" />
          </mxGeometry>
        </mxCell>
        <mxCell id="Q6l-A-WZH55Bo8x8fdeK-21" style="edgeStyle=orthogonalEdgeStyle;rounded=0;orthogonalLoop=1;jettySize=auto;html=1;exitX=0.5;exitY=1;exitDx=0;exitDy=0;" parent="1" source="Q6l-A-WZH55Bo8x8fdeK-14" target="Q6l-A-WZH55Bo8x8fdeK-13" edge="1">
          <mxGeometry relative="1" as="geometry" />
        </mxCell>
        <mxCell id="Q6l-A-WZH55Bo8x8fdeK-26" value="SI" style="edgeLabel;html=1;align=center;verticalAlign=middle;resizable=0;points=[];" parent="Q6l-A-WZH55Bo8x8fdeK-21" vertex="1" connectable="0">
          <mxGeometry x="-0.35" relative="1" as="geometry">
            <mxPoint as="offset" />
          </mxGeometry>
        </mxCell>
        <mxCell id="Q6l-A-WZH55Bo8x8fdeK-14" value="Simulación activa?" style="rhombus;whiteSpace=wrap;html=1;" parent="1" vertex="1">
          <mxGeometry x="290" y="70" width="80" height="80" as="geometry" />
        </mxCell>
        <mxCell id="Q6l-A-WZH55Bo8x8fdeK-16" value="Fin simulación" style="ellipse;whiteSpace=wrap;html=1;fillColor=#f5f5f5;fontColor=#333333;strokeColor=none;" parent="1" vertex="1">
          <mxGeometry x="510" y="80" width="120" height="60" as="geometry" />
        </mxCell>
        <mxCell id="y3j2_2yqiRQZ7AM6RWgt-7" style="edgeStyle=orthogonalEdgeStyle;rounded=0;orthogonalLoop=1;jettySize=auto;html=1;exitX=1;exitY=0.5;exitDx=0;exitDy=0;entryX=0;entryY=0.5;entryDx=0;entryDy=0;" edge="1" parent="1" source="Q6l-A-WZH55Bo8x8fdeK-18" target="y3j2_2yqiRQZ7AM6RWgt-5">
          <mxGeometry relative="1" as="geometry" />
        </mxCell>
        <mxCell id="Q6l-A-WZH55Bo8x8fdeK-18" value="Medir qubit en nodo origen con operadores apropiados" style="rounded=0;whiteSpace=wrap;html=1;fillColor=#dae8fc;strokeColor=none;" parent="1" vertex="1">
          <mxGeometry x="257.5" y="292" width="142" height="50" as="geometry" />
        </mxCell>
        <mxCell id="y3j2_2yqiRQZ7AM6RWgt-10" style="edgeStyle=orthogonalEdgeStyle;rounded=0;orthogonalLoop=1;jettySize=auto;html=1;exitX=0.5;exitY=1;exitDx=0;exitDy=0;entryX=0;entryY=0.5;entryDx=0;entryDy=0;" edge="1" parent="1" source="Q6l-A-WZH55Bo8x8fdeK-19" target="Q6l-A-WZH55Bo8x8fdeK-14">
          <mxGeometry relative="1" as="geometry">
            <Array as="points">
              <mxPoint x="531" y="442" />
              <mxPoint x="200" y="442" />
              <mxPoint x="200" y="110" />
            </Array>
          </mxGeometry>
        </mxCell>
        <mxCell id="Q6l-A-WZH55Bo8x8fdeK-19" value="Registrar resultado en el datacollector" style="rounded=0;whiteSpace=wrap;html=1;fillColor=#dae8fc;strokeColor=none;" parent="1" vertex="1">
          <mxGeometry x="459.5" y="382" width="142.5" height="40" as="geometry" />
        </mxCell>
        <mxCell id="y3j2_2yqiRQZ7AM6RWgt-3" style="edgeStyle=orthogonalEdgeStyle;rounded=0;orthogonalLoop=1;jettySize=auto;html=1;exitX=0.5;exitY=1;exitDx=0;exitDy=0;entryX=0.5;entryY=0;entryDx=0;entryDy=0;" edge="1" parent="1" source="y3j2_2yqiRQZ7AM6RWgt-1" target="Q6l-A-WZH55Bo8x8fdeK-14">
          <mxGeometry relative="1" as="geometry" />
        </mxCell>
        <mxCell id="y3j2_2yqiRQZ7AM6RWgt-1" value="Calcular operadores del experimento" style="rounded=0;whiteSpace=wrap;html=1;fillColor=#dae8fc;strokeColor=none;" vertex="1" parent="1">
          <mxGeometry x="257.5" y="-20" width="145" height="60" as="geometry" />
        </mxCell>
        <mxCell id="y3j2_2yqiRQZ7AM6RWgt-8" style="edgeStyle=orthogonalEdgeStyle;rounded=0;orthogonalLoop=1;jettySize=auto;html=1;exitX=0.5;exitY=1;exitDx=0;exitDy=0;" edge="1" parent="1" source="y3j2_2yqiRQZ7AM6RWgt-5" target="y3j2_2yqiRQZ7AM6RWgt-6">
          <mxGeometry relative="1" as="geometry" />
        </mxCell>
        <mxCell id="y3j2_2yqiRQZ7AM6RWgt-5" value="Medir qubit en nodo destino con operadores apropiados" style="rounded=0;whiteSpace=wrap;html=1;fillColor=#dae8fc;strokeColor=none;" vertex="1" parent="1">
          <mxGeometry x="460" y="292" width="142" height="50" as="geometry" />
        </mxCell>
        <mxCell id="y3j2_2yqiRQZ7AM6RWgt-9" style="edgeStyle=orthogonalEdgeStyle;rounded=0;orthogonalLoop=1;jettySize=auto;html=1;exitX=1;exitY=0.5;exitDx=0;exitDy=0;entryX=0;entryY=0.5;entryDx=0;entryDy=0;" edge="1" parent="1" source="y3j2_2yqiRQZ7AM6RWgt-6" target="Q6l-A-WZH55Bo8x8fdeK-19">
          <mxGeometry relative="1" as="geometry" />
        </mxCell>
        <mxCell id="y3j2_2yqiRQZ7AM6RWgt-6" value="Calcular resultado del experimento" style="rounded=0;whiteSpace=wrap;html=1;fillColor=#dae8fc;strokeColor=none;" vertex="1" parent="1">
          <mxGeometry x="257" y="382" width="142.5" height="40" as="geometry" />
        </mxCell>
      </root>
    </mxGraphModel>
  </diagram>
</mxfile>
